<?xml version="1.0" encoding="UTF-8" standalone="no"?>
<!-- Created with Inkscape (http://www.inkscape.org/) -->

<svg
   xmlns:dc="http://purl.org/dc/elements/1.1/"
   xmlns:cc="http://creativecommons.org/ns#"
   xmlns:rdf="http://www.w3.org/1999/02/22-rdf-syntax-ns#"
   xmlns:svg="http://www.w3.org/2000/svg"
   xmlns="http://www.w3.org/2000/svg"
   xmlns:sodipodi="http://sodipodi.sourceforge.net/DTD/sodipodi-0.dtd"
   xmlns:inkscape="http://www.inkscape.org/namespaces/inkscape"
   width="210mm"
   height="100%"
   inkscape:version="0.91 r13725"
   version="0.0"
   sodipodi:docname="predict23_1.svg"
   id="svg2"
   inkscape:export-filename="/home/eugene/ANDROID/projects/On23_support_services/predict23.github.io-source/theme/static/assets/img/favicon.png"
   inkscape:export-xdpi="2.4000001"
   inkscape:export-ydpi="2.4000001">
  <defs
     id="defs4" />
  <sodipodi:namedview
     inkscape:zoom="0.5"
     inkscape:cx="-31.096747"
     inkscape:cy="-341.50487"
     inkscape:window-width="2560"
     inkscape:window-height="1378"
     inkscape:window-x="-3"
     inkscape:window-y="-3"
     inkscape:window-maximized="1"
     inkscape:current-layer="layer1"
     id="namedview5"
     showgrid="false"
     showguides="false" />
  <metadata
     id="metadata7">
    <rdf:RDF>
      <cc:Work
         rdf:about="">
        <dc:format>image/svg+xml</dc:format>
        <dc:type
           rdf:resource="http://purl.org/dc/dcmitype/StillImage" />
        <dc:title />
      </cc:Work>
    </rdf:RDF>
  </metadata>
  <g
     inkscape:label="Layer 1"
     inkscape:groupmode="layer"
     id="layer1">
    <path
       style="color:#000000;font-style:normal;font-variant:normal;font-weight:normal;font-stretch:normal;font-size:medium;line-height:normal;font-family:sans-serif;text-indent:0;text-align:start;text-decoration:none;text-decoration-line:none;text-decoration-style:solid;text-decoration-color:#000000;letter-spacing:normal;word-spacing:normal;text-transform:none;direction:ltr;block-progression:tb;writing-mode:lr-tb;baseline-shift:baseline;text-anchor:start;white-space:normal;clip-rule:nonzero;display:inline;overflow:visible;visibility:visible;opacity:1;isolation:auto;mix-blend-mode:normal;color-interpolation:sRGB;color-interpolation-filters:linearRGB;solid-color:#000000;solid-opacity:1;fill:#ec3628;fill-opacity:1;fill-rule:nonzero;stroke:none;stroke-width:60.39899826;stroke-linecap:round;stroke-linejoin:miter;stroke-miterlimit:4;stroke-dasharray:none;stroke-dashoffset:0;stroke-opacity:1;color-rendering:auto;image-rendering:auto;shape-rendering:auto;text-rendering:auto;enable-background:accumulate"
       d="M 259.80737,-601 0,-451 0,-150.99999 259.80737,-1 l 259.80894,-149.99999 0,-14.21271 0,-285.7873 -259.80894,-150 z m 0,56.85082 210.57315,121.57459 0,243.15077 -210.57315,121.572997 -210.573173,-121.574587 0,-243.14918 210.573173,-121.57459 z"
       id="path4136"
       inkscape:connector-curvature="0"
       inkscape:export-xdpi="45"
       inkscape:export-ydpi="45" />
    <path
       style="color:#000000;font-style:normal;font-variant:normal;font-weight:normal;font-stretch:normal;font-size:medium;line-height:normal;font-family:sans-serif;text-indent:0;text-align:start;text-decoration:none;text-decoration-line:none;text-decoration-style:solid;text-decoration-color:#000000;letter-spacing:normal;word-spacing:normal;text-transform:none;direction:ltr;block-progression:tb;writing-mode:lr-tb;baseline-shift:baseline;text-anchor:start;white-space:normal;clip-rule:nonzero;display:inline;overflow:visible;visibility:visible;opacity:1;isolation:auto;mix-blend-mode:normal;color-interpolation:sRGB;color-interpolation-filters:linearRGB;solid-color:#000000;solid-opacity:1;fill:#c51f12;fill-opacity:1;fill-rule:nonzero;stroke:none;stroke-width:60.39899826;stroke-linecap:round;stroke-linejoin:miter;stroke-miterlimit:4;stroke-dasharray:none;stroke-dashoffset:0;stroke-opacity:1;color-rendering:auto;image-rendering:auto;shape-rendering:auto;text-rendering:auto;enable-background:accumulate"
       d="m 259.80894,-601 c 0,56.85082 0,543.149177 0,600 L 0,-150.99999 0,-165.2127 0,-451 Z m 0,56.85082 -210.573151,121.57459 0,243.15077 210.573151,121.572997 c 0,56.850823 0,-543.149177 0,-486.298357 z"
       id="path4136-8"
       inkscape:connector-curvature="0"
       sodipodi:nodetypes="ccccccccccc"
       inkscape:export-xdpi="45"
       inkscape:export-ydpi="45" />
    <path
       style="color:#000000;font-style:normal;font-variant:normal;font-weight:normal;font-stretch:normal;font-size:medium;line-height:normal;font-family:sans-serif;text-indent:0;text-align:start;text-decoration:none;text-decoration-line:none;text-decoration-style:solid;text-decoration-color:#000000;letter-spacing:normal;word-spacing:normal;text-transform:none;direction:ltr;block-progression:tb;writing-mode:lr-tb;baseline-shift:baseline;text-anchor:start;white-space:normal;clip-rule:nonzero;display:inline;overflow:visible;visibility:visible;opacity:1;isolation:auto;mix-blend-mode:normal;color-interpolation:sRGB;color-interpolation-filters:linearRGB;solid-color:#000000;solid-opacity:1;fill:#ec3628;fill-opacity:1;fill-rule:nonzero;stroke:none;stroke-width:60.39899826;stroke-linecap:round;stroke-linejoin:miter;stroke-miterlimit:4;stroke-dasharray:none;stroke-dashoffset:0;stroke-opacity:1;color-rendering:auto;image-rendering:auto;shape-rendering:auto;text-rendering:auto;enable-background:accumulate"
       d="m 258.99921,23 -259.80737,150 0,300.00001 L 258.99921,623 518.80815,473.00001 l 0,-14.21271 0,-285.7873 z m 0,91.85082 180.77416,103.1916 1.93934,207.45228 -183.7135,99.60244 L 76.26837,428.39952 76.17604,216.92541 Z"
       id="path4136-1"
       inkscape:connector-curvature="0"
       sodipodi:nodetypes="ccccccccccccccc"
       inkscape:export-xdpi="2.4000001"
       inkscape:export-ydpi="2.4000001" />
    <path
       style="color:#000000;font-style:normal;font-variant:normal;font-weight:normal;font-stretch:normal;font-size:medium;line-height:normal;font-family:sans-serif;text-indent:0;text-align:start;text-decoration:none;text-decoration-line:none;text-decoration-style:solid;text-decoration-color:#000000;letter-spacing:normal;word-spacing:normal;text-transform:none;direction:ltr;block-progression:tb;writing-mode:lr-tb;baseline-shift:baseline;text-anchor:start;white-space:normal;clip-rule:nonzero;display:inline;overflow:visible;visibility:visible;opacity:1;isolation:auto;mix-blend-mode:normal;color-interpolation:sRGB;color-interpolation-filters:linearRGB;solid-color:#000000;solid-opacity:1;fill:#a21910;fill-opacity:1;fill-rule:nonzero;stroke:none;stroke-width:60.39899826;stroke-linecap:round;stroke-linejoin:miter;stroke-miterlimit:4;stroke-dasharray:none;stroke-dashoffset:0;stroke-opacity:1;color-rendering:auto;image-rendering:auto;shape-rendering:auto;text-rendering:auto;enable-background:accumulate"
       d="m 259.00078,23 0,600 -259.80894,-149.99999 0,-14.21271 0,-285.7873 z m 0.001,91.84963 -182.997436,102.04374 0.530331,211.8613 182.465655,98.39451 z"
       id="path4136-8-4"
       inkscape:connector-curvature="0"
       sodipodi:nodetypes="ccccccccccc"
       inkscape:export-xdpi="2.4000001"
       inkscape:export-ydpi="2.4000001" />
    <path
       style="color:#000000;font-style:normal;font-variant:normal;font-weight:normal;font-stretch:normal;font-size:227.44577026px;line-height:125%;font-family:Insignia;-inkscape-font-specification:'Insignia, Normal';text-indent:0;text-align:start;text-decoration:none;text-decoration-line:none;text-decoration-style:solid;text-decoration-color:#000000;letter-spacing:0px;word-spacing:0px;text-transform:none;direction:ltr;block-progression:tb;writing-mode:lr-tb;baseline-shift:baseline;text-anchor:start;white-space:normal;clip-rule:nonzero;display:inline;overflow:visible;visibility:visible;opacity:1;isolation:auto;mix-blend-mode:normal;color-interpolation:sRGB;color-interpolation-filters:linearRGB;solid-color:#000000;solid-opacity:1;fill:#ec3628;fill-opacity:1;fill-rule:nonzero;stroke:none;stroke-width:26.49699974;stroke-linecap:butt;stroke-linejoin:miter;stroke-miterlimit:4;stroke-dasharray:none;stroke-dashoffset:0;stroke-opacity:1;color-rendering:auto;image-rendering:auto;shape-rendering:auto;text-rendering:auto;enable-background:accumulate"
       d="m 142.67266,203.9828 0,9.70769 0,230.41538 76.36679,0 -0.43385,-172.2973 69.9257,-0.7071 1.68747,172.81259 72.16652,0.19181 0,-240.12307 z"
       id="path4155-5"
       inkscape:connector-curvature="0"
       sodipodi:nodetypes="cccccccccc"
       inkscape:export-xdpi="2.4000001"
       inkscape:export-ydpi="2.4000001" />
  </g>
  <path
     style="color:#000000;font-style:normal;font-variant:normal;font-weight:normal;font-stretch:normal;font-size:227.44577026px;line-height:125%;font-family:Insignia;-inkscape-font-specification:'Insignia, Normal';text-indent:0;text-align:start;text-decoration:none;text-decoration-line:none;text-decoration-style:solid;text-decoration-color:#000000;letter-spacing:0px;word-spacing:0px;text-transform:none;direction:ltr;block-progression:tb;writing-mode:lr-tb;baseline-shift:baseline;text-anchor:start;white-space:normal;clip-rule:nonzero;display:inline;overflow:visible;visibility:visible;opacity:1;isolation:auto;mix-blend-mode:normal;color-interpolation:sRGB;color-interpolation-filters:linearRGB;solid-color:#000000;solid-opacity:1;fill:#ec3628;fill-opacity:1;fill-rule:nonzero;stroke:none;stroke-width:26.49699974;stroke-linecap:butt;stroke-linejoin:miter;stroke-miterlimit:4;stroke-dasharray:none;stroke-dashoffset:0;stroke-opacity:1;color-rendering:auto;image-rendering:auto;shape-rendering:auto;text-rendering:auto;enable-background:accumulate"
     d="m 111.79453,-406.0172 0,9.1417 0,216.98137 46.55906,0 0,-185.00499 62.48463,0 0,185.00499 46.66894,0 0,-226.12307 z"
     id="path4155"
     inkscape:connector-curvature="0"
     sodipodi:nodetypes="cccccccccc"
     inkscape:export-xdpi="45"
     inkscape:export-ydpi="45" />
  <g
     id="g4168"
     transform="matrix(0.62329165,0,0,0.62097786,119.44955,-477.34622)"
     style="fill:#ec3628;fill-opacity:1;stroke:#000000;stroke-width:12.61715889;stroke-miterlimit:4;stroke-dasharray:none;stroke-opacity:1"
     inkscape:export-xdpi="45"
     inkscape:export-ydpi="45">
    <path
       style="color:#000000;font-style:normal;font-variant:normal;font-weight:normal;font-stretch:normal;font-size:227.44577026px;line-height:125%;font-family:Insignia;-inkscape-font-specification:'Insignia, Normal';text-indent:0;text-align:start;text-decoration:none;text-decoration-line:none;text-decoration-style:solid;text-decoration-color:#000000;letter-spacing:0px;word-spacing:0px;text-transform:none;direction:ltr;block-progression:tb;writing-mode:lr-tb;baseline-shift:baseline;text-anchor:start;white-space:normal;clip-rule:nonzero;display:inline;overflow:visible;visibility:visible;opacity:1;isolation:auto;mix-blend-mode:normal;color-interpolation:sRGB;color-interpolation-filters:linearRGB;solid-color:#000000;solid-opacity:1;fill:#ec3628;fill-opacity:1;fill-rule:nonzero;stroke:none;stroke-width:12.61715889;stroke-linecap:butt;stroke-linejoin:miter;stroke-miterlimit:4;stroke-dasharray:none;stroke-dashoffset:0;stroke-opacity:1;color-rendering:auto;image-rendering:auto;shape-rendering:auto;text-rendering:auto;enable-background:accumulate"
       d="m 328.11719,310.2832 c -12.47788,0 -24.16683,3.35987 -34.52344,9.96094 -0.002,0.002 -0.005,0.002 -0.008,0.004 -10.10208,6.36996 -18.49438,15.16135 -25.05078,26.08593 l -3.70899,6.17969 34.83399,15.04102 2.79882,-4.9043 c 2.99438,-5.25005 6.5682,-9.12825 10.80274,-11.9375 4.15446,-2.75612 8.41535,-4.04101 13.36133,-4.04101 5.60046,0 9.77741,1.60693 13.66992,5.14843 3.84274,3.49622 5.40234,7.01889 5.40234,12.07031 0,6.28534 -2.70861,12.1196 -9.48633,18.4043 -0.004,0.004 -0.006,0.008 -0.01,0.0117 l -65.79102,59.05469 0,37.01758 6.3086,0 105.9082,0 0,-37.84375 -58.33398,0 34.18554,-29.42578 0.0137,-0.0117 c 7.6816,-6.68057 13.72165,-13.75809 17.98633,-21.30274 l 0.0156,-0.0273 0.0156,-0.0274 c 4.32906,-7.8409 6.54492,-16.42289 6.54492,-25.36523 0,-14.79294 -5.09514,-27.97741 -14.95507,-38.29688 -9.91015,-10.52123 -23.76168,-15.79492 -39.98047,-15.79492 z"
       id="path4157"
       inkscape:connector-curvature="0"
       sodipodi:nodetypes="cccccccsssscccccccccccccsccc" />
    <path
       style="color:#000000;font-style:normal;font-variant:normal;font-weight:normal;font-stretch:normal;font-size:227.44577026px;line-height:125%;font-family:Insignia;-inkscape-font-specification:'Insignia, Normal';text-indent:0;text-align:start;text-decoration:none;text-decoration-line:none;text-decoration-style:solid;text-decoration-color:#000000;letter-spacing:0px;word-spacing:0px;text-transform:none;direction:ltr;block-progression:tb;writing-mode:lr-tb;baseline-shift:baseline;text-anchor:start;white-space:normal;clip-rule:nonzero;display:inline;overflow:visible;visibility:visible;opacity:1;isolation:auto;mix-blend-mode:normal;color-interpolation:sRGB;color-interpolation-filters:linearRGB;solid-color:#000000;solid-opacity:1;fill:#ec3628;fill-opacity:1;fill-rule:nonzero;stroke:none;stroke-width:12.61715889;stroke-linecap:butt;stroke-linejoin:miter;stroke-miterlimit:4;stroke-dasharray:none;stroke-dashoffset:0;stroke-opacity:1;color-rendering:auto;image-rendering:auto;shape-rendering:auto;text-rendering:auto;enable-background:accumulate"
       d="m 388.48633,313.4375 0,37.8418 6.30859,0 40.61524,0 -34.21094,50.8164 16.37109,-4.46875 c 3.41721,-0.93271 6.09454,-1.52796 7.81641,-1.78906 l 0.18555,-0.0273 0.18554,-0.0391 c 1.75061,-0.3733 3.87638,-0.58984 6.36133,-0.58984 9.67321,0 16.3649,2.45557 21.29492,7.04297 l 0.0332,0.0293 0.0332,0.0293 c 5.03698,4.55673 7.30664,9.73785 7.30664,17.15235 0,6.75805 -2.1517,12.11942 -7.00781,17.24023 -4.62026,4.86044 -9.6519,7.01367 -16.54102,7.01367 -4.22664,0 -8.38251,-1.00837 -12.72461,-3.20312 -4.40505,-2.22657 -8.39184,-5.27989 -12.04297,-9.28906 l -4.24609,-4.66211 -28.25391,25.70507 3.72852,4.62696 c 6.78122,8.41326 14.70536,14.77577 23.66601,18.77929 l 0.0176,0.01 0.0195,0.008 c 8.93752,3.92313 18.67076,5.86719 28.98243,5.86719 9.41817,0 18.09892,-1.68106 25.83593,-5.16406 l 0.0352,-0.0156 0.0332,-0.0137 c 7.69994,-3.57429 14.3616,-8.48842 19.78321,-14.6543 5.34058,-6.07374 9.39973,-12.94974 12.08203,-20.48632 2.64518,-7.43229 3.99023,-15.04815 3.99023,-22.73243 0,-7.25256 -1.09405,-14.05945 -3.35547,-20.31445 -2.22402,-6.31207 -5.39136,-11.90305 -9.51758,-16.5957 -4.01937,-4.57117 -8.71592,-8.23417 -13.9707,-10.86914 -1.91366,-1.04522 -3.92222,-1.75488 -5.92969,-2.45313 l 38.63282,-54.79492 -115.51758,0 z"
       id="path4159"
       inkscape:connector-curvature="0"
       sodipodi:nodetypes="cccccccccscccscsscccccccscccssscsccccc" />
  </g>
</svg>
